<?xml version="1.0" standalone="no"?>
<!DOCTYPE svg PUBLIC "-//W3C//DTD SVG 20010904//EN" "http://www.w3.org/TR/2001/REC-SVG-20010904/DTD/svg10.dtd">
<svg version="1.0" xmlns="http://www.w3.org/2000/svg" width="253.000000pt" height="245.000000pt"
    viewBox="0 0 253.000000 245.000000" preserveAspectRatio="xMidYMid meet">
    <metadata>
        Created by potrace 1.16, written by Peter Selinger 2001-2019
    </metadata>
    <g transform="translate(0.000000,245.000000) scale(0.100000,-0.100000)" fill="#929292" stroke="none">
        <path d="M1910 2195 l0 -184 -60 6 c-33 3 -116 2 -185 -2 l-125 -7 4 -47 c3
-25 5 -52 5 -58 1 -10 44 -13 179 -13 l178 0 0 -180 c-1 -112 3 -181 9 -183 6
-1 33 -3 60 -2 l50 0 3 182 2 183 182 2 181 3 1 55 0 55 -80 7 c-43 4 -125 4
-181 1 l-103 -6 0 187 0 186 -60 0 -60 0 0 -185z" />
        <path d="M1088 2015 c-2 -1 -32 -5 -68 -8 -197 -18 -414 -128 -561 -283 -71
-76 -111 -134 -159 -236 -54 -114 -80 -220 -87 -358 -12 -254 76 -479 260
-668 195 -200 453 -296 730 -271 444 41 800 413 824 862 l6 107 -62 0 -61 0 0
-58 c0 -175 -76 -380 -193 -517 -152 -179 -352 -275 -582 -278 -184 -2 -322
39 -469 140 -58 40 -183 167 -192 195 -3 10 -10 18 -15 18 -5 0 -9 5 -9 10 0
6 -11 27 -24 48 -28 45 -71 166 -85 242 -12 65 -7 243 8 318 38 187 172 379
339 486 130 83 255 120 432 128 l55 3 3 49 c2 27 -1 53 -6 58 -9 9 -77 19 -84
13z" />
        <path d="M814 1512 c-149 -59 -161 -257 -20 -327 63 -32 99 -31 163 1 42 20
57 35 77 77 31 60 32 97 7 152 -23 52 -71 93 -119 100 -20 3 -44 7 -53 9 -8 2
-33 -4 -55 -12z" />
        <path d="M1295 1510 c-144 -65 -150 -262 -11 -330 52 -25 99 -25 151 -1 55 25
85 61 101 121 11 42 11 57 -1 90 -21 61 -53 97 -106 119 -57 25 -81 25 -134 1z" />
        <path d="M680 980 c0 -6 -3 -9 -7 -9 -19 4 -73 -24 -73 -37 0 -8 15 -45 33
-82 83 -172 290 -301 483 -302 196 0 394 120 487 296 20 40 37 79 37 87 0 13
-17 22 -97 54 -11 4 -41 -50 -47 -84 -3 -17 -53 -79 -96 -121 -73 -69 -179
-112 -277 -112 -97 0 -223 49 -290 112 -34 33 -103 129 -107 150 -6 26 -18 47
-32 52 -8 3 -14 1 -14 -4z" />
    </g>
</svg>