<?xml version="1.0" encoding="iso-8859-1"?>
<!-- Generator: Adobe Illustrator 22.1.0, SVG Export Plug-In . SVG Version: 6.00 Build 0)  -->
<svg version="1.1" xmlns="http://www.w3.org/2000/svg" xmlns:xlink="http://www.w3.org/1999/xlink" x="0px" y="0px"
	 viewBox="0 0 50 50" style="enable-background:new 0 0 50 50;" xml:space="preserve">
<g id="Layer_1">
	<path d="M27,26c0-5.738-3.742-10.612-8.911-12.331C19.849,12.396,21,10.332,21,8c0-3.859-3.141-7-7-7S7,4.141,7,8
		c0,2.332,1.151,4.396,2.911,5.669C4.742,15.388,1,20.262,1,26v1h26V26z M9,8c0-2.757,2.243-5,5-5s5,2.243,5,5s-2.243,5-5,5
		S9,10.757,9,8z M3.045,25C3.552,19.401,8.271,15,14,15s10.448,4.401,10.955,10H3.045z"/>
	<path d="M40.089,35.669C41.849,34.396,43,32.332,43,30c0-3.859-3.141-7-7-7s-7,3.141-7,7c0,2.332,1.151,4.396,2.911,5.669
		C26.742,37.388,23,42.262,23,48v1h26v-1C49,42.262,45.258,37.388,40.089,35.669z M31,30c0-2.757,2.243-5,5-5s5,2.243,5,5
		s-2.243,5-5,5S31,32.757,31,30z M25.045,47C25.552,41.401,30.271,37,36,37s10.448,4.401,10.955,10H25.045z"/>
	<polygon points="37,19 37,7 28.414,7 31.707,3.707 30.293,2.293 24.586,8 30.293,13.707 31.707,12.293 28.414,9 35,9 35,19 	"/>
	<polygon points="12.293,37.707 15.586,41 9,41 9,31 7,31 7,43 15.586,43 12.293,46.293 13.707,47.707 19.414,42 13.707,36.293 	"/>
</g>
<g>
</g>
</svg>
