<svg xmlns="http://www.w3.org/2000/svg" width="15" height="19" viewBox="0 0 15 19"><g><g><path fill="#141414" d="M1.996 15.984C.94 14.473.086 12.141.086 9.914c0-3.55 2.308-5.45 4.593-5.45 1.207 0 2.215.798 2.977.798.715 0 1.84-.844 3.223-.844.527 0 2.402.047 3.632 1.828-.105.082-1.98 1.125-1.98 3.48 0 2.72 2.379 3.68 2.45 3.704-.012.07-.376 1.312-1.255 2.601-.773 1.125-1.605 2.262-2.847 2.262-1.243 0-1.57-.738-3-.738-1.407 0-1.899.761-3.035.761-1.137 0-1.934-1.054-2.848-2.332zM7.504 4.195a1.608 1.608 0 0 1-.035-.328c0-.949.48-1.887 1.007-2.484C9.133.609 10.246.035 11.16 0c.023.105.035.234.035.363 0 .938-.398 1.875-.96 2.555-.61.75-1.653 1.3-2.485 1.3-.094 0-.188-.011-.246-.023z"/></g></g></svg>