<svg xmlns="http://www.w3.org/2000/svg" width="18" height="18" viewBox="0 0 18 18"><g><g><path fill="#fff" fill-opacity=".4" d="M13.5 6c-.83 0-1.5-.67-1.5-1.5S12.67 3 13.5 3s1.5.67 1.5 1.5S14.33 6 13.5 6zm0 9c-.83 0-1.5-.67-1.5-1.5s.67-1.5 1.5-1.5 1.5.67 1.5 1.5-.67 1.5-1.5 1.5zM9 10.5c-.83 0-1.5-.67-1.5-1.5S8.17 7.5 9 7.5s1.5.67 1.5 1.5-.67 1.5-1.5 1.5zM4.5 6C3.67 6 3 5.33 3 4.5S3.67 3 4.5 3 6 3.67 6 4.5 5.33 6 4.5 6zm0 9c-.83 0-1.5-.67-1.5-1.5S3.67 12 4.5 12s1.5.67 1.5 1.5S5.33 15 4.5 15zM16 0H2C.9 0 0 .9 0 2v14c0 1.1.9 2 2 2h14c1.1 0 2-.9 2-2V2c0-1.1-.9-2-2-2z"/></g></g></svg>