<svg xmlns="http://www.w3.org/2000/svg" width="16" height="11" viewBox="0 0 16 11"><g><g><path fill="#141414" fill-opacity=".4" d="M14.48 1.956c.56-.56 1.52-.16 1.52.63v5.485c0 .791-.96 1.191-1.52.631l-2.036-2.035v3.11c0 .49-.4.89-.888.89H.889A.892.892 0 0 1 0 9.777V.89C0 .4.4 0 .889 0h10.667c.488 0 .888.4.888.889V4zM8.482 7.952a.546.546 0 0 0-.548-.548H4.869l4.97-4.97a.546.546 0 1 0-.772-.774l-4.97 4.97V3.567a.55.55 0 0 0-.549-.548.55.55 0 0 0-.548.548v4.386a.55.55 0 0 0 .548.548h4.386a.55.55 0 0 0 .548-.548z"/></g></g></svg>