<svg xmlns="http://www.w3.org/2000/svg" width="18" height="19" viewBox="0 0 18 19"><g><g><path fill="#fff" d="M2.123 1.56l15.33 15.34a.996.996 0 1 1-1.41 1.41l-3.49-3.49c-.78.45-1.64.77-2.55.9V18c0 .55-.45 1-1 1s-1-.45-1-1v-2.28c-2.97-.45-5.47-2.79-5.93-5.75-.07-.51.33-.97.85-.97.41 0 .77.3.83.71.37 2.62 2.71 4.39 5.25 4.39.81 0 1.6-.19 2.31-.52l-1.66-1.66c-.61.13-1.27.12-2.02-.31-1.03-.59-1.63-1.72-1.63-2.91v-.43l-5.29-5.3a.996.996 0 1 1 1.41-1.41zm13.81 8.41a6.69 6.69 0 0 1-.63 1.94l-1.27-1.27c.1-.29.17-.61.22-.93.06-.41.42-.71.83-.71.52 0 .92.46.85.97zm-9.89-7.32A2.979 2.979 0 0 1 9.003 0c1.66 0 3 1.34 3 3v5.6z"/></g></g></svg>