<svg xmlns="http://www.w3.org/2000/svg" width="21" height="18" viewBox="0 0 21 18"><g><g><path fill="#141414" fill-opacity=".4" d="M11.753 5.003c-.41 0-.751.341-.751.752V9.44c0 .35.19.68.49.86l3.127 1.853a.76.76 0 0 0 1.032-.26.758.758 0 0 0-.26-1.031l-2.886-1.713V5.745c0-.401-.341-.742-.752-.742zm.509-5c-5.09-.14-9.26 3.95-9.26 9h-1.79c-.45 0-.67.54-.35.85l2.79 2.8c.2.2.51.2.71 0l2.79-2.8a.5.5 0 0 0-.36-.85h-1.79c0-3.9 3.18-7.05 7.1-7 3.72.05 6.85 3.18 6.9 6.9.05 3.91-3.1 7.1-7 7.1-1.61 0-3.1-.55-4.28-1.48a.994.994 0 0 0-1.32.08c-.42.42-.39 1.13.08 1.49a8.858 8.858 0 0 0 5.52 1.91c5.05 0 9.14-4.17 9-9.26-.13-4.69-4.05-8.61-8.74-8.74z"/></g></g></svg>