<svg xmlns="http://www.w3.org/2000/svg" width="20" height="20" viewBox="0 0 20 20"><g><g><path fill="#141414" fill-opacity=".4" d="M14.4 11.89a.744.744 0 0 0-1.029.24A3.975 3.975 0 0 1 9.995 14c-1.379 0-2.637-.7-3.376-1.88a.746.746 0 1 0-1.27.79c1.02 1.63 2.748 2.59 4.646 2.59 1.898 0 3.626-.97 4.645-2.58.22-.35.11-.81-.24-1.03zM13.5 9a1.5 1.5 0 1 0 0-3 1.5 1.5 0 0 0 0 3zm-7 0a1.5 1.5 0 1 0 0-3 1.5 1.5 0 0 0 0 3zm3.5 9c-4.42 0-8-3.58-8-8s3.58-8 8-8 8 3.58 8 8-3.58 8-8 8zM9.99 0C4.47 0 0 4.48 0 10s4.47 10 9.99 10C15.52 20 20 15.52 20 10S15.52 0 9.99 0z"/></g></g></svg>