<svg xmlns="http://www.w3.org/2000/svg" width="18" height="18" viewBox="0 0 18 18"><g><g><path fill="#141414" fill-opacity=".4" d="M12.982 7.26l-5.724 5.73C4.13 9.85 2.583 5.98 2.962 2.97l.01-.01c3.007-.38 6.883 1.17 10.01 4.3zm-7.16 7.16l-1.27 1.27c-.89.9-2.42.77-3.08-.31-2.37-3.89-1.88-9.03 1.48-12.4-1.3 3.93-.25 8.31 2.87 11.44zM2.982 2.95a10.1 10.1 0 0 1 12.4-1.47c1.08.65 1.2 2.19.31 3.08l-1.27 1.27c-3.13-3.13-7.51-4.18-11.44-2.88zm8.58 7.18l5.73 5.73c.39.39.39 1.03 0 1.43-.39.39-1.03.39-1.43 0l-5.73-5.73z"/></g></g></svg>